<svg id="a5a1a6a3-1970-438e-ba43-880fb51fecab" data-name="Layer 1" xmlns="http://www.w3.org/2000/svg" viewBox="0 0 938.43 665.37">
  <path d="M1113,138c-75.77,148.69-848.7-313.18-824,0,49.71,630.2-103.29,247.74,0-22,71.09,33.55,575,36.55,824,0C1110.92,154.43,1139.69,85.62,1113,138Z" transform="translate(-211.69 -26.52)" style="fill: #ff3551"/>
  <path d="M1094,612c122.41,3.45,22-13.12-824,0-71.24,1.1-84-50,0-22,60,5,953.86,226.73,824,0C855.5,173.6,990,541,1094,612Z" transform="translate(-211.69 -26.52)" style="fill: #ff3551"/>
  <path d="M706,639s-258.77-3.06-181,0c152.89,6,231.92-546,0-537-152.44,5.9,181,0,181,0C677.31,275.29,679,454.63,706,639Z" transform="translate(-211.69 -26.52)" style="fill: #ff3551"/>
  <ellipse cx="262.31" cy="331.48" rx="66" ry="115" style="fill: #ff3551"/>
  <path d="M1027.78,239C989.34,311.48,964.9,373.8,973.19,378.2s46.18-50.78,84.63-123.25S1208,87,1112.41,115.77C1104.12,111.37,1066.23,166.55,1027.78,239Z" transform="translate(-211.69 -26.52)" style="fill: #ff3551"/>
  <circle cx="644.31" cy="446.48" r="58" style="fill: #ff3551"/>
  <circle cx="644.31" cy="231.48" r="58" style="fill: #ff3551"/>
</svg>
